<?xml version="1.0" standalone="no"?>
<!DOCTYPE svg PUBLIC "-//W3C//DTD SVG 20010904//EN"
 "http://www.w3.org/TR/2001/REC-SVG-20010904/DTD/svg10.dtd">
<svg version="1.0" xmlns="http://www.w3.org/2000/svg"
 width="700.000000pt" height="700.000000pt" viewBox="0 0 700.000000 700.000000"
 preserveAspectRatio="xMidYMid meet">
<metadata>
Created by potrace 1.14, written by Peter Selinger 2001-2017
</metadata>
<g transform="translate(0.000000,700.000000) scale(0.100000,-0.100000)"
fill="#000000" stroke="none">
<path d="M2100 6980 c-55 -26 -103 -78 -118 -129 -8 -26 -12 -150 -12 -380 0
-187 -3 -342 -7 -342 -5 -1 -26 -3 -48 -4 -318 -20 -606 -168 -799 -412 -25
-32 -51 -63 -56 -70 -5 -6 -30 -49 -54 -95 -78 -145 -122 -306 -130 -473 l-2
-40 -360 -5 c-409 -6 -409 -6 -470 -89 -78 -108 -46 -254 70 -318 l51 -28 352
0 c194 0 354 -2 354 -5 7 -30 2 -423 -5 -428 -6 -3 -166 -6 -356 -7 -336 -1
-346 -1 -387 -23 -83 -43 -123 -113 -119 -204 5 -94 61 -168 148 -197 26 -9
134 -12 365 -12 180 0 335 -2 343 -4 13 -4 15 -36 15 -217 l0 -213 -344 -2
c-295 -1 -351 -4 -388 -18 -47 -18 -89 -53 -116 -97 -43 -69 -28 -184 31 -250
64 -71 65 -71 457 -73 193 -2 352 -3 355 -4 7 -1 7 -431 0 -432 -3 -1 -162 -2
-355 -3 -335 -2 -352 -3 -390 -23 -85 -45 -125 -113 -121 -204 3 -71 36 -131
94 -173 l44 -31 366 -5 367 -5 1 -35 c11 -396 249 -763 609 -939 139 -68 273
-105 428 -116 23 -1 45 -3 50 -4 4 0 7 -156 7 -345 0 -362 2 -383 47 -443 33
-43 115 -83 172 -83 69 0 140 40 181 103 l35 52 1 350 c1 193 3 355 3 360 1
10 430 15 432 5 0 -3 2 -162 3 -355 2 -337 2 -351 23 -391 59 -112 184 -152
300 -97 42 20 99 95 108 141 3 19 6 184 7 368 0 184 3 335 6 335 19 4 409 4
419 1 8 -3 12 -94 12 -350 l0 -346 26 -52 c32 -65 79 -102 150 -117 46 -9 63
-8 109 6 57 18 116 71 138 125 7 18 12 144 13 373 1 190 4 349 7 355 5 7 400
12 428 5 3 0 5 -155 4 -344 0 -214 4 -355 10 -377 16 -53 92 -126 146 -140 75
-20 177 6 221 56 53 61 54 65 59 448 l5 360 60 3 c269 16 518 129 708 320 190
190 309 454 321 713 l2 55 360 5 c344 5 361 6 399 27 48 26 71 52 97 111 23
51 21 129 -5 179 -19 35 -78 90 -116 105 -17 8 -149 12 -376 14 -192 1 -352 2
-355 3 -3 1 -5 99 -5 218 l0 217 355 1 c344 1 356 2 396 22 75 40 124 117 124
195 0 57 -39 137 -81 169 -64 49 -87 51 -449 51 -255 -1 -339 2 -342 11 -2 7
-4 104 -4 217 l1 205 340 2 c372 2 404 6 460 57 67 62 90 151 60 237 -18 51
-44 81 -100 117 l-40 26 -360 1 -360 1 0 217 c0 140 3 217 10 218 5 0 165 2
355 2 l345 2 45 25 c158 89 158 305 -1 384 l-53 26 -348 0 c-191 0 -348 3
-349 8 0 4 -2 23 -4 42 -8 82 -15 137 -20 160 -4 14 -9 38 -12 55 -18 102
-110 293 -193 401 -97 125 -245 247 -387 318 -115 57 -291 103 -431 110 l-47
2 -5 360 c-3 197 -9 368 -14 379 -47 99 -160 153 -264 125 -51 -13 -113 -66
-138 -118 -17 -33 -19 -71 -20 -382 -2 -190 -3 -350 -3 -355 -1 -10 -430 -15
-432 -5 0 3 -2 165 -3 360 -2 390 1 370 -65 443 -42 46 -79 61 -156 61 -77 1
-105 -11 -161 -70 -52 -55 -56 -84 -55 -454 0 -255 -3 -339 -12 -342 -7 -2
-104 -4 -217 -3 l-205 0 -2 340 c-2 389 -5 408 -70 471 -83 81 -208 85 -293 8
-75 -68 -74 -65 -75 -464 l-1 -355 -217 0 c-140 0 -217 3 -218 10 0 5 -2 165
-3 355 -2 378 -1 375 -65 443 -37 41 -72 56 -138 63 -46 4 -68 0 -103 -16z
m3053 -1306 c235 -49 414 -201 493 -419 13 -36 27 -77 31 -92 4 -16 8 -755 9
-1643 2 -1291 0 -1627 -10 -1675 -19 -86 -51 -164 -95 -231 -42 -65 -143 -170
-172 -179 -11 -4 -19 -10 -19 -14 0 -15 -146 -75 -223 -92 -72 -16 -203 -17
-1690 -15 -1788 2 -1650 -3 -1797 68 -174 83 -310 257 -356 453 -4 17 -8 757
-9 1645 -2 1364 0 1626 12 1684 53 256 261 461 514 509 107 20 3217 21 3312 1z"/>
<path d="M2835 4809 c-202 -10 -328 -64 -458 -195 -90 -90 -148 -198 -177
-329 -16 -72 -16 -1492 0 -1569 56 -269 269 -473 544 -521 51 -9 1445 -8 1511
0 275 37 511 275 550 555 4 25 7 369 7 765 -1 765 -1 765 -49 891 -65 168
-248 334 -418 379 -16 5 -32 9 -35 10 -55 17 -1198 28 -1475 14z m1409 -453
c52 -23 104 -80 119 -132 9 -32 12 -210 11 -736 0 -771 3 -731 -70 -802 -20
-20 -57 -42 -80 -49 -32 -9 -213 -12 -736 -12 l-693 1 -48 23 c-26 13 -59 38
-72 55 -52 68 -51 60 -50 806 1 774 -2 737 71 805 64 61 58 60 818 59 629 -1
694 -3 730 -18z"/>
</g>
</svg>
